<?xml version="1.0" standalone="no"?>
<!DOCTYPE svg PUBLIC "-//W3C//DTD SVG 20010904//EN"
 "http://www.w3.org/TR/2001/REC-SVG-20010904/DTD/svg10.dtd">
<svg version="1.0" xmlns="http://www.w3.org/2000/svg"
 width="2048.000000pt" height="2048.000000pt" viewBox="0 0 2048.000000 2048.000000"
 preserveAspectRatio="xMidYMid meet">

<g transform="translate(0.000000,2048.000000) scale(0.200000,-0.200000)"
fill="#ffbf75" stroke="none">
<path d="M3580 7484 c-208 -32 -347 -90 -496 -208 -169 -133 -291 -324 -346
-542 l-23 -89 0 -1530 0 -1530 27 -99 c114 -414 451 -696 863 -725 61 -4 776
-7 1590 -6 1564 1 1517 -1 1665 47 179 58 355 183 472 338 65 85 142 243 170
350 l22 85 4 1460 c2 1015 0 1493 -8 1568 -25 247 -127 449 -318 628 -141 132
-331 223 -515 248 -73 10 -3042 14 -3107 5z m1127 -580 c83 -9 147 -49 180
-114 l23 -45 0 -1619 c0 -1557 -1 -1620 -19 -1660 -10 -22 -31 -53 -47 -68
-62 -58 -63 -58 -698 -58 l-582 0 -52 26 c-63 31 -107 89 -122 158 -8 36 -10
512 -8 1631 3 1519 4 1581 22 1615 24 46 75 99 106 112 14 6 50 14 80 17 72
10 1031 13 1117 5z m2008 -21 c52 -28 79 -57 107 -118 l23 -50 3 -720 c2 -694
2 -722 -17 -785 -51 -166 -195 -306 -362 -350 -43 -12 -360 -110 -720 -224
-96 -30 -197 -60 -223 -66 -88 -20 -172 22 -194 98 -9 29 -12 304 -12 1053 0
998 1 1015 21 1059 34 76 77 108 159 121 25 3 299 6 610 5 558 -1 565 -1 605
-23z"/>
</g>
</svg>
